<?xml version="1.0" standalone="no"?><!DOCTYPE svg PUBLIC "-//W3C//DTD SVG 1.1//EN" "http://www.w3.org/Graphics/SVG/1.1/DTD/svg11.dtd"><svg class="icon" width="200px" height="200.00px" viewBox="0 0 1024 1024" version="1.1" xmlns="http://www.w3.org/2000/svg"><path fill="#ffffff" d="M970.112 396.288h-25.088c-10.496 0-20.352 3.328-28.416 8.96C871.168 226.048 708.48 92.16 515.456 92.16 318.464 92.16 152.576 231.68 111.36 416.896c-8.704-7.552-19.968-12.288-32.384-12.288H53.888C26.368 404.608 3.84 427.136 3.84 454.656v28.544c0 64 48.256 116.224 110.208 123.648 45.184 179.712 208.128 313.984 401.408 313.984 196.48 0 361.984-138.88 403.84-323.2C976.768 586.24 1020.16 535.68 1020.16 474.88v-28.544c0-27.52-22.528-50.048-50.048-50.048zM97.28 532.992c-15.488 0-28.032-12.544-28.032-28.032v-15.488c0-5.248 4.352-9.6 9.6-9.6h8.832c5.248 0 9.6 4.352 9.6 9.6v43.52z m434.176-374.4h68.48c32.512 0 60.544 13.824 73.088 33.536l-26.24 2.176c-76.672 6.272-132.224 55.552-123.264 109.44 4.352 25.984 28.16 46.976 59.776 57.216-16.128 4.224-33.664 6.784-51.84 6.784-81.792 0-148.608-47.104-148.608-104.576 0-57.6 66.816-104.576 148.608-104.576zM308.992 521.6c-19.712-19.712-19.712-51.584 0-71.296 19.712-19.712 51.584-19.712 71.296 0 19.712 19.712 19.712 51.584 0 71.296-19.712 19.712-51.712 19.712-71.296 0z m353.536 204.8c-34.304 44.544-86.016 70.144-141.952 70.144-56.192 0-108.16-25.856-142.464-70.784-5.504-7.296-4.096-17.664 3.072-23.168 7.296-5.632 17.664-4.096 23.168 3.072 28.032 36.736 70.4 57.728 116.096 57.728 45.44 0 87.68-20.864 115.712-57.216 5.504-7.296 16-8.576 23.296-3.072 7.296 5.632 8.704 16.128 3.072 23.296z m61.952-204.8c-19.712 19.712-51.584 19.712-71.296 0-19.712-19.712-19.712-51.584 0-71.296s51.584-19.712 71.296 0 19.712 51.584 0 71.296zM954.752 496.64c0 14.72-11.52 26.496-25.856 27.648 0.256-6.016 0.896-11.776 0.896-17.792 0-9.728-0.768-19.328-1.536-29.056 1.536-3.2 4.224-5.888 8.064-5.888h8.832c5.248 0 9.6 4.352 9.6 9.6V496.64z"  /></svg>