<?xml version="1.0" standalone="no"?><!DOCTYPE svg PUBLIC "-//W3C//DTD SVG 1.1//EN" "http://www.w3.org/Graphics/SVG/1.1/DTD/svg11.dtd"><svg class="icon" width="200px" height="200.00px" viewBox="0 0 1024 1024" version="1.1" xmlns="http://www.w3.org/2000/svg"><path fill="#ffffff" d="M158.531303 662.460503c82.856937 0 150.45948-67.602542 150.459479-150.45948s-67.602542-150.45948-150.459479-150.459479c-82.857961 0-150.45948 67.602542-150.45948 150.459479s67.602542 150.45948 150.45948 150.45948zM511.962138 662.460503c82.916289 0 150.519854-67.602542 150.519854-150.45948s-67.602542-150.45948-150.519854-150.459479c-82.842611 0-150.445153 67.602542-150.445154 150.459479s67.602542 150.45948 150.445154 150.45948zM865.467674 662.460503c82.857961 0 150.45948-67.602542 150.45948-150.45948s-67.602542-150.45948-150.45948-150.459479c-82.917312 0-150.519854 67.602542-150.519855 150.459479s67.602542 150.45948 150.519855 150.45948z"  /></svg>