<?xml version="1.0" standalone="no"?><!DOCTYPE svg PUBLIC "-//W3C//DTD SVG 1.1//EN" "http://www.w3.org/Graphics/SVG/1.1/DTD/svg11.dtd"><svg class="icon" width="200px" height="200.00px" viewBox="0 0 1024 1024" version="1.1" xmlns="http://www.w3.org/2000/svg"><path fill="#ffffff" d="M951.04 931.968H796.544c-116.736 0-212.224-95.488-212.224-212.224V395.392c0-35.712 29.184-64.896 64.896-64.896h27.776c191.232 0 347.648 156.416 347.648 347.648v180.48c-0.128 40.32-33.152 73.344-73.6 73.344z"  /><path fill="#ffffff" d="M362.752 601.216l-35.968-39.68 104.96-94.976c45.824-41.472 113.92-43.264 161.792-4.352l92.928 75.52-33.664 41.6-92.928-75.52c-27.392-22.144-66.048-21.12-92.16 2.432l-104.96 94.976z"  /><path fill="#ffffff" d="M511.744 487.936c-14.848 0-26.752-12.032-26.752-26.752V125.312c0-14.848 12.032-26.752 26.752-26.752 14.848 0 26.752 12.032 26.752 26.752v335.872c0 14.848-11.904 26.752-26.752 26.752zM73.472 932.864h154.496c116.736 0 212.224-95.488 212.224-212.224V396.288c0-35.712-29.184-64.896-64.896-64.896h-27.776C156.416 331.392 0 487.808 0 678.912v180.48c0 40.448 33.024 73.472 73.472 73.472z"  /></svg>