<?xml version="1.0" standalone="no"?><!DOCTYPE svg PUBLIC "-//W3C//DTD SVG 1.1//EN" "http://www.w3.org/Graphics/SVG/1.1/DTD/svg11.dtd"><svg class="icon" width="200px" height="200.00px" viewBox="0 0 1024 1024" version="1.1" xmlns="http://www.w3.org/2000/svg"><path fill="#ffffff" d="M914.24 171.904c-20.576-66.848-84.128-118.336-131.936-148.928A101.76 101.76 0 0 0 674.88 21.728l-85.344 51.712a121.184 121.184 0 0 1-125.6 0L378.624 21.728a101.76 101.76 0 0 0-107.424 1.248c-47.872 30.592-111.424 82.08-132 148.928-34.432 111.808-86.016 249.408 42.976 404.224 0 0-68.768 292.448 94.592 430.048 0 0 119.36 53.728 103.232-51.616-10.464-68.416-9.696-321.856 146.72-334.24 156.448 12.384 157.216 265.856 146.72 334.24-16.096 105.344 103.2 51.616 103.2 51.616 163.424-137.6 94.624-430.048 94.624-430.048 129.024-154.784 77.408-292.416 42.976-404.224z"  /></svg>