<?xml version="1.0" standalone="no"?><!DOCTYPE svg PUBLIC "-//W3C//DTD SVG 1.1//EN" "http://www.w3.org/Graphics/SVG/1.1/DTD/svg11.dtd"><svg class="icon" width="200px" height="200.00px" viewBox="0 0 1024 1024" version="1.1" xmlns="http://www.w3.org/2000/svg"><path fill="#ffffff" d="M998.004081 348.928423l-591.727631 524.283406c-21.5058 19.087988-54.464393 17.051936-73.425128-4.453864l-82.969122-93.531141c-19.215241-21.760306-17.306443-54.973406 4.453864-74.188647l591.345872-523.901647c22.905586-20.360521 58.409244-18.197215 78.769764 4.70837l78.260751 88.441012c20.360521 22.905586 18.197215 58.28199-4.70837 78.642511z"  /><path fill="#ffffff" d="M209.033906 919.659267c-6.998929 6.235409-17.179189 6.235409-22.651079 0.127253-5.47189-6.108156-4.072104-16.161163 2.926824-22.396572l160.211847-142.014632-46.065678-52.046581L15.863466 958.217003c-12.979832 11.452793-15.397644 30.031768-5.344637 41.484561 35.630911 39.830269 147.995534 22.269319 200.169369 6.489916 14.125111-4.326611 27.104943-11.707299 38.175976-21.5058l170.264854-150.795106-49.883275-56.245939-160.211847 142.014632z"  /></svg>