<?xml version="1.0" standalone="no"?><!DOCTYPE svg PUBLIC "-//W3C//DTD SVG 1.1//EN" "http://www.w3.org/Graphics/SVG/1.1/DTD/svg11.dtd"><svg class="icon" width="200px" height="200.00px" viewBox="0 0 1024 1024" version="1.1" xmlns="http://www.w3.org/2000/svg"><path fill="#ffffff" d="M1005.184 81.664c-6.272-19.072-24.192-32-44.16-33.92l-186.88-18.048c-13.824-1.28-24.576 9.984-24.576 23.808V296.448c0 177.792-105.216 336.512-267.776 438.784-18.688 17.664-43.776 28.544-71.424 28.544h-13.056c-52.992 0-100.352-37.76-107.264-90.24-8.448-63.488 41.344-118.4 103.424-118.4h17.024c5.376 0 10.752 0.512 15.872 1.408 107.008-98.176 172.288-226.304 172.288-366.208V53.76c0-4.352 0.64-8.448 1.664-12.544 3.968-14.592-7.552-29.056-22.656-30.464l-106.752-10.24c-42.112-4.096-82.048 18.048-102.144 55.296-23.552 43.392-66.304 102.016-140.8 150.912C95.744 285.184 5.12 440.704 5.12 618.752 5.12 841.6 168.448 1024 368 1024h469.888c55.04 0 100.224-50.304 100.224-111.872L922.88 829.312c-29.312-159.104 34.56-323.072 63.744-482.176l11.008-59.904c1.408-7.296 1.792-14.592 1.92-22.016h0.128s28.928-112.512 5.504-183.552z"  /></svg>