<?xml version="1.0" standalone="no"?><!DOCTYPE svg PUBLIC "-//W3C//DTD SVG 1.1//EN" "http://www.w3.org/Graphics/SVG/1.1/DTD/svg11.dtd"><svg class="icon" width="200px" height="200.00px" viewBox="0 0 1024 1024" version="1.1" xmlns="http://www.w3.org/2000/svg"><path fill="#ffffff" d="M510.537143 0C310.125714 0 238.445714 127.268571 238.445714 245.76c0 5.851429 2.925714 11.702857 7.314286 16.091429 16.091429 36.571429 52.662857 130.194286 46.811429 225.28-8.777143 121.417143-65.828571 238.445714-68.754286 260.388571s-20.48 87.771429-10.24 124.342857c10.24 52.662857 61.44 152.137143 175.542857 152.137143 100.937143 0 153.6-77.531429 225.28-185.782857 11.702857-16.091429 20.48-30.72 29.257143-43.885714 19.017143-27.794286 39.497143-51.2 62.902857-76.068572 59.977143-67.291429 128.731429-143.36 128.731429-283.794286C833.828571 166.765714 665.6 0 510.537143 0z m24.868571 700.708571l-7.314285 10.24c-55.588571 80.457143-98.011429 137.508571-134.582858 137.508572-39.497143 0-58.514286-45.348571-62.902857-71.68 0-4.388571 0-8.777143 2.925715-11.702857 2.925714-2.925714 5.851429-5.851429 10.24-5.851429h2.925714c7.314286 0 14.628571 5.851429 16.091428 13.165714 1.462857 11.702857 11.702857 45.348571 32.182858 45.348572 20.48 0 67.291429-62.902857 109.714285-122.88l7.314286-10.24c4.388571-7.314286 14.628571-8.777143 21.942857-4.388572 2.925714 2.925714 5.851429 5.851429 5.851429 10.24 0 2.925714-1.462857 7.314286-4.388572 10.24z m174.08-178.468571c-8.777143 0-16.091429-7.314286-14.628571-16.091429 4.388571-124.342857-20.48-223.817143-71.68-276.48-26.331429-27.794286-59.977143-42.422857-95.085714-42.422857-122.88 0-171.154286 133.12-175.542858 257.462857v2.925715h2.925715c58.514286 8.777143 80.457143 57.051429 80.457143 98.011428 0 62.902857-58.514286 95.085714-99.474286 95.085715-8.777143 0-16.091429-7.314286-16.091429-16.091429 0-8.777143 7.314286-16.091429 16.091429-16.091429 23.405714 0 67.291429-19.017143 67.291428-64.365714 0-20.48-7.314286-67.291429-67.291428-67.291428h-16.091429v-16.091429c0-141.897143 54.125714-307.2 207.725715-307.2 43.885714 0 84.845714 17.554286 118.491428 52.662857 40.96 42.422857 87.771429 128.731429 80.457143 299.885714-1.462857 10.24-8.777143 16.091429-17.554286 16.091429z"  /></svg>