<?xml version="1.0" standalone="no"?><!DOCTYPE svg PUBLIC "-//W3C//DTD SVG 1.1//EN" "http://www.w3.org/Graphics/SVG/1.1/DTD/svg11.dtd"><svg class="icon" width="200px" height="200.00px" viewBox="0 0 1024 1024" version="1.1" xmlns="http://www.w3.org/2000/svg"><path fill="#ffffff" d="M517.9 485.8c21.6 0 39 17.5 39 39 0 21.6-17.5 39-39 39-21.6 0-39-17.5-39-39s17.4-39 39-39z"  /><path fill="#ffffff" d="M517.9 433.8c50.3 0 91.1 40.8 91.1 91.1S568.2 616 517.9 616s-91.1-40.8-91.1-91.1 40.8-91.1 91.1-91.1z m98.9-111.4c-29.8-14.6-63.4-22.8-98.9-22.8-10.3 0-20.5 0.7-30.4 2l-14.7-75c17.1-8.5 28.9-26.2 28.9-46.6 0-28.7-23.3-52.1-52.1-52.1-28.7 0-52 23.3-52 52.1 0 28 22.1 50.8 49.8 52l14.6 74.6c-38.4 9.8-72.8 29.5-100.4 56.1l-29.9-27.6c0.8-2.6 1.2-5.4 1.2-8.2 0-16.2-13.1-29.3-29.3-29.3-16.2 0-29.3 13.1-29.3 29.3 0 16.2 13.1 29.3 29.3 29.3 3.7 0 7.2-0.7 10.5-1.9l29.9 27.6c-21.2 25.7-36.8 56.2-44.9 89.6l-25.2-4.6c-2.9-18.7-19.1-32.9-38.6-32.9-21.6 0-39 17.5-39 39 0 21.6 17.5 39 39 39 14.5 0 27.2-7.9 33.9-19.6l25.3 4.6c-1.1 9.1-1.7 18.4-1.7 27.8 0 38.9 9.9 75.5 27.3 107.5l-106.4 66c-9.4-9-22-14.5-36-14.5-28.7 0-52.1 23.3-52.1 52s23.3 52.1 52.1 52.1c28.7 0 52-23.3 52-52.1 0-5.4-0.8-10.6-2.4-15.6l106.4-66c7.5 10.6 15.9 20.6 25 29.8 21.7 21.7 47.9 39 77 50.5l-27.2 83c-21.1 0.5-38.1 17.8-38.1 39 0 21.6 17.5 39 39.1 39s39-17.5 39-39c0-12.6-6-23.8-15.3-31l27.1-83c18.4 4.9 37.7 7.4 57.6 7.4 8.8 0 17.3-0.5 25.8-1.5l2.1 11.9c-7.3 5.3-12 13.9-12 23.6 0 16.2 13.1 29.3 29.3 29.3 16.2 0 29.3-13.1 29.3-29.3 0-13.3-8.8-24.5-21-28.1l-2.1-11.9c38-8.9 72.3-27.4 100.2-52.8l61.9 60.6c-4.4 7.7-6.9 16.5-6.9 26 0 28.7 23.3 52 52 52s52-23.3 52-52-23.3-52.1-52-52.1c-9.9 0-19.1 2.7-27 7.5l-61.9-60.6c31.8-36.5 52.1-83.4 55-135h79.9c5.3 15.2 19.8 26 36.8 26 21.6 0 39-17.5 39-39 0-21.6-17.5-39-39-39-17 0-31.5 10.9-36.8 26h-79.9c-2.9-51-22.8-97.5-54.1-133.8l122.2-118c5.2 2.7 11.2 4.2 17.5 4.2 21.5 0 39-17.5 39-39.1s-17.5-39-39-39c-21.6 0-39 17.5-39 39 0 5.8 1.2 11.3 3.5 16.3l-122.2 118c-9.7-8.9-20.1-17-31.2-24.1l33.2-59.2c2.2 0.4 4.4 0.6 6.7 0.6 21.6 0 39-17.5 39-39 0-21.6-17.5-39-39-39-21.6 0-39 17.5-39 39 0 9.8 3.6 18.8 9.7 25.7l-33.1 59.3z"  /></svg>